<?xml version="1.0" encoding="UTF-8"?>
<!-- Generator: Adobe Illustrator 25.4.1, SVG Export Plug-In . SVG Version: 6.00 Build 0)  -->
<svg xmlns="http://www.w3.org/2000/svg" xmlns:xlink="http://www.w3.org/1999/xlink" version="1.1" id="Layer_1" x="0px" y="0px" viewBox="0 0 2492.7 661.9" style="enable-background:new 0 0 2492.7 661.9;" xml:space="preserve">
<g>
	<path d="M1250.6,661.9c-9.6-9.4-19.2-18.7-28.7-27.9c10.4-10.4,20-19.9,29.5-29.4c9.1,9.3,18.6,19,28.6,29.3   c-7.3,7.2-15.2,15-23,22.8c-1.6,1.6-3,3.5-4.5,5.2C1252,661.9,1251.3,661.9,1250.6,661.9z M1233.2,632.7c6.1,6.2,12.4,12.7,18.6,19   c6.1-6.1,12.5-12.4,18.7-18.6c-6.4-6.5-12.7-12.9-18.8-19.1C1245.4,620.3,1239.1,626.7,1233.2,632.7z"></path>
	<path d="M859.3,245.1c4.9,0,9,0,13.1,0c22.8,0,45.7-0.1,68.5,0.1c2.2,0,4.7,1.1,6.6,2.4c4.3,2.9,8.3,2.7,12.2-1   c0.7-0.7,1.8-1.4,2.8-1.4c6.5-0.1,13-0.1,19.7-0.1c-1.7,6.1-3.6,11.7-4.7,17.5c-2.8,13.7-0.3,27.1,2.3,40.5   c2.2,11.6,4.9,23.1,6.3,34.7c0.7,5.3-1.1,11-1.8,16.7c3.9,0.3,5.5,3.5,6.2,7.3c3.1,16.2,6.1,32.3,9,48.5c0.3,1.8,0.5,4.3-0.4,5.5   c-2.5,3.1-2.2,5.9-0.4,8.9c0.5,0.8,1.2,1.4,1.8,2.1c0.7-0.8,1.8-1.4,2.1-2.3c4.8-15.5,9.4-31,14.2-46.5c4-13.1,8-26.1,12.2-39.1   c0.4-1.1,1.9-2.6,2.9-2.6c5.1-0.2,10.4-2.7,15.4,0.6c0.4,0.3,1.3,0,1.9-0.1c0.3-0.1,0.5-0.4,1.6-1.5c-3.8-5.3-7.6-11-11.8-16.2   c-1.9-2.3-2.7-4.1-1.7-7.1c6-18.8,11.7-37.6,17.8-56.4c1-3,3.3-5.6,5.1-8.4c0.5,0.2,1,0.3,1.4,0.5c3.6,11.5,7.2,23.1,10.9,34.6   c8.4,26.5,16.7,53.1,25.3,79.5c1.9,5.7,3.2,10.6-3,14.4c-1.3,0.8-2.2,2.4-3.2,3.6c0.3,0.5,0.5,1,0.6,1c9.4-0.7,13.4,4.5,15.5,13   c2.6,10.4,6.2,20.6,10.2,30.9c0.9-4.9,1.9-9.8,2.7-14.7c3.3-19.1,6.6-38.2,9.8-57.3c3.2-19.7,6.5-39.3,9.3-59.1   c1.9-13.8,2.5-27.8-1.9-41.4c-0.8-2.4,3.6-7.1,6.6-7.1c26.2,0,52.3,0,78.5,0.1c3.9,0,6.8,2,6.3,7.9c3.5-2.4,6-5.1,9.1-6.1   c3.9-1.2,8.2-1.2,12.4-1.2c0.3,0,1.6,3.8,1,4.7c-10.6,15.4-16.3,32.9-20.5,50.9c-1.5,6.4-2.9,12.5-7.5,17.5c-0.5,0.6-1,1.9-0.8,2.2   c5.2,5.2,0.9,10.3-0.3,15.3c-5.5,24-11.2,48-17.4,71.8c-1.1,4.3-5.5,7.5-7.8,11.6c-2.9,5.2-8.2,7-13.2,9.9c3,2.5,5.7,4.2,7.8,6.6   c3.5,4,4.5,8.9,3,14c-3.2,11.1-6.5,22.2-9.6,33.4c-0.5,1.9-0.9,3.9-0.8,5.8c0.2,3.4-0.4,6.2-3.4,8.3c-0.7,0.5-1.5,1.6-1.6,2.4   c-0.1,6.4-0.1,12.6-2.6,18.9c-2.2,5.6-1.9,12.2-3.1,18.2c-1.1,5.7-2.6,11.3-4.3,16.9c-0.7,2.3-1.8,6-3.3,6.3   c-4.5,0.9-9.4,1.2-12.7-3.3c-1-1.4-2.1-2.8-3.8-5c1.4,7.7,0.5,8.7-6.5,8.7c-15,0-30-0.1-45,0.1c-4.1,0-6-1.2-5.2-3.7   c-2.6-2.8-5.5-4.5-6.1-6.9c-3.4-11.8-6.6-23.8-8.9-35.9c-0.6-3.2,2.5-7,4.1-11.2c0.2,0.5,0.1,0,0,0c-10-1.7-9.6-10.4-11.4-17.3   c-3.7-14.1-6.9-28.3-10.4-42.4c0-0.2-0.5-0.3-1.3-0.8c-2.5,10.7-5.1,21.3-7.5,31.9c-6.3,27.2-12.5,54.3-18.6,81.5   c-0.8,3.5-1.9,5.1-5.9,4.8c-4.8-0.4-9.9,0.8-14.4-0.3s-8.3-0.4-12.6-0.1c-15.4,1.1-30.9,0.4-46.9,0.4c-2.2-8.4-4.4-16.7-6.5-24.9   c-4.4-16.8-8.7-33.7-13.2-50.5c-0.8-3.1-1.8-6,2.2-8.2c-9.4-7.4-8.8-18.9-11.7-28.7c-6.8-23.5-12.6-47.2-18.7-70.9   c-5.6-21.6-11-43.3-16.6-64.9c-1.6-6.4-3.7-12.6-5.3-19c-0.9-3.9-3.1-7.3-0.4-12c1.7-3.1-0.1-8.3-0.6-12.5   c-0.1-0.5-1.5-1.1-2.4-1.3c-5.2-1.3-8.6-4.4-11.2-9.1C866.2,254.2,862.8,250.1,859.3,245.1z"></path>
	<path d="M186.1,0c-13,28.3-23.1,57.4-27.8,89c3.9-4.4,7-8.7,10.9-12.1s8.6-5.9,13-8.9c0.5,0.3,0.9,0.6,1.4,1   c-1.1,3.1-1.8,6.5-3.4,9.2c-7.6,12.6-12.1,26.1-13.5,40.7c-0.3,3.3,0.5,6.6,0.5,9.9c0,2.6-0.3,5.2-0.5,7.7c-0.1,0.8-0.3,1.8,0,2.5   c3.4,5.7,6.4,11.7,10.4,17c3.4,4.4,7.9,8,11.9,11.9c2.5,2.4,5,4.9,7.6,7.3c0.8,0.7,2,0.9,3.1,1.1c6.3,0.8,12.6,1.5,18.8,2.2   c3,0.3,5.9,0.7,8.9,0.8c18.1,0.4,36.3,0,54.4,1.1c30.4,1.8,59.9,7.6,86.2,24.3c3.1,2,5.9,4.3,8.8,6.5c2.7,2.1,4.9,4.2,2.1,7.9   c-0.4,0.5-0.6,1.8-0.2,2.3c1,1.7,2.7,3.1,3.4,5c0.6,1.8,0.3,3.9,0.4,5.6c2.3,0.4,4.5,0.8,7.7,1.3c2.8-1.7,6-1.2,7.7,3.3   c3.8,10.1,8.1,20.1,9.9,30.6c3.7,21.3,1,42.2-7.2,62.4c-9.2,22.6-25.1,39.3-45.8,51.5c-15.9,9.4-33.2,15.4-51.5,17.8   c-2.1,0.3-4.7-1.1-6.6-2.5c-2.5-1.7-4.5-4.1-7.5-7c0.7,2.8,0.9,4.6,1.6,6.2c1.4,3.6-0.4,5.2-3.5,5.3c-10.5,0.3-20.9,0.6-31.4,0.4   c-3.1-0.1-3.4,1.2-3.3,3.4c0.2,5.3,0.6,10.6,0.6,15.8c0.1,29.5-0.2,59,0.3,88.5c0.2,10,2.3,20.1,3.4,30.1c0.3,2.7,0.3,5.5,0.3,8.3   c0,1.5-0.3,3,0.6,4.8c1.1-1.5,2.2-3,3.8-5c3,4.4,5.8,8.6,9.2,13.6c-5.2,0-9.6,0-14,0c-7.7,0-15.3,0.3-23-0.1   c-2.5-0.1-4.9-1.8-7.4-2.6c-1.1-0.3-2.3-0.5-3.4-0.3c-6,0.9-11.9,2.8-17.9,2.9c-25.7,0.3-51.3,0.1-77,0.1c-8.4,0-8.7-0.4-7.4-8.9   c-1.1,0.9-2.2,1.4-2.7,2.2c-3.2,6.4-8.7,7.2-15.1,6.7c-5.6-0.4-11.3-0.1-16.9-0.1c-0.3-0.5-0.5-0.9-0.8-1.4c1.1-0.9,2-2.1,3.3-2.8   c3.1-1.6,7-2.4,9.5-4.7c14.4-13.2,28.1-27.2,35.3-46c4.5-11.7,8.7-23.5,12.2-35.5c1.4-4.8,3.4-6.8,8.2-6.6c1.3,0.1,2.7-0.6,4-0.9   c-0.5-0.3-1-0.7-1.5-1c0.8-2.8,1.3-5.6,2.3-8.3c0.6-1.5,1.8-2.7,2.9-3.9c7.2-7.4,7.2-7.4,0.2-14.5c-6-6-7.4-13.5-6.7-21.6   c1-11.5,2-23.1,2.8-34.6c0.6-8.5,1-16.9,0.9-25.4c-0.1-15.3-0.1-30.6-1.1-45.9c-1.3-19.9-1.6-40-6.9-59.4c-0.2-0.7-0.4-1.7-0.2-2.3   c3.2-7.7,10.6-11.6,18.3-9.3c-2.8-5.8-5.6-10.7-12.5-12.2c-3-0.6-5.6-3.2-8.3-4.9c-3.3-2-6.6-4-9.8-6.1c-1.4-0.9-2.9-1.7-3.8-2.9   c-2.6-3.2-4.9-6.6-7.3-10c-0.4-0.6-1.1-1.7-0.9-2.1c3-5.3-1.9-5.1-4.4-6.6c-2-1.2-4.1-2.4-5.7-4c-8.3-8.6-19.4-12.5-29.5-18.1   c-19.3-10.8-37.5-23-52.9-39c-15.1-15.6-26.3-33.6-31.3-55c-0.5-2.3-2.9-5.1,1.1-7.4c0.7-0.4-0.7-5.2-1.7-7.7   c-2.9-6.9-1.5-25.6,1.9-31c3.4,10.8,5.9,23,11,34c6.2,13.3,14.7,25.5,22.1,38.2c2.9,4.9,5.5,10,8.2,15c1.8-1.9,3.8-1.1,6.4,1.5   c5.2,5.1,10.9,9.7,16.5,14.4c1.2,1,2.7,1.7,3.3,2c3.5-9.4,6.7-18.5,10.5-27.4c1.3-3,4.4-5.2,6.2-8.1c2.1-3.4,3.5-7.3,5.7-10.6   c2.6-3.9,5.8-7.4,9.8-10.5c-1.4,3.9-3,7.7-4,11.6c-2.6,9.3-4.1,18.9-7.5,27.9c-2.8,7.4-2.1,14.5-2.3,21.9c-0.1,4.4,1.3,6.8,5.4,8.8   c16.1,7.9,32.1,16.2,48.1,24.4c1,0.5,2,0.9,2.8,1.3c-2.7-8.8-5.7-17.6-8-26.5c-3.4-13.1-3.2-26.4-1.2-39.8   c5.8-39.4,24.2-73,47.3-104.5C184.4,2,185.3,1,186.1,0z M249.9,277.5c-2-0.6-3.4-1.1-3.9-1.2c1.4,7.5,3.7,15,3.9,22.5   c0.6,19.6,0.5,39.3,0.1,59c-0.1,5.8-2,11.6-3,17.3c-0.2,0.9,0,1.8,0,2.9c3.7-2.4,6.8-5.7,10.5-6.7c17-4.8,29.8-15.4,41.3-28.1   c2.7-2.9,4.9-5.9,8.1-4c0.2-2.4-0.5-5.5,0.7-7.3c13.3-19.3,18.1-40.1,10.9-62.9c-4.2-13.5-12.9-23.3-26-29.4   c-12.3-5.8-25.4-6.3-38.5-7.8c-3.5-0.4-4.6,1.1-4.5,4.6c0.3,12,0.4,24,0.5,35.9C250.1,274,250,275.6,249.9,277.5z"></path>
	<path d="M2135.9,560.4c0.6-4.2,0.3-8.5,1.9-11.9c5.3-11.2,7.8-22.9,6.8-35.1c-0.8-10.1,2.1-19.2,5.5-28.3c2-5.4,4-10.6,8.2-14.9   c2.3-2.4,2.9-6.3,4.8-10.9c-5.1,1.1-9.2,1.6-13.1,2.9c-4.3,1.5-5.3,0.1-5.3-4c0.1-36.2-0.2-72.3,0.2-108.5   c0.1-6.5,3.1-12.9,4.8-19.3c0.3-1.4,1-3.2,0.4-4.1c-5.3-7.9-5.8-16.7-5.4-25.6c0.7-14.1-0.7-27.8-7.2-40.6   c-2.4-4.8-5.3-9.4-8.2-14.6c1.2-0.2,2.1-0.4,3-0.4c13.8,0,27.7,0.2,41.5,0.1c6.6-0.1,11.8,2.6,16.7,6.6c4.4,3.6,8.7,7.3,13.2,10.8   c0.5,0.4,1.5,0.3,2.8,0.4c0-5.9,0-11.5,0-17.3c1.5-0.2,2.6-0.5,3.7-0.5c15.3,0,30.7-0.6,46,0.2c26.2,1.3,50.3,9.3,72.2,24.1   c13,8.8,24.1,19.3,33.7,31.5c4.7,6,4.7,13.1,0.4,19.5c-0.4,0.6-0.5,1.4-1.1,3c4.4-2.4,6.9-2.2,11.2,0.6   c12.7,8.3,13.3,22.1,17.1,34.2c5.2,16.6,6.2,33.9,5.6,51.3c-0.1,3.9-1.3,6.7-5.6,6.7c0.9,4.3,2.7,8.5,2.6,12.6   c-0.4,9-1.1,18.1-2.8,26.9c-2.9,15.4-6.7,30.7-9.7,46.1c-1.9,10.1,0.5,19,7.5,27.2c19.5,22.6,55.6,22.8,75.6,7.5   c7.5-5.7,11.5-13.8,14.6-22.5c4.9-13.5,2.3-26.6-1.8-40.6c-7.3,7.3-15.1,9.9-23.9,4.4c-6-3.7-9.5-9.2-11.4-16.3c3.3,0.7,6,1.2,10,2   c-4.3-5.5-8.2-9.6-11-14.3c-3-5.2-5-11.1-7.4-16.7c-0.3-0.7-0.7-1.9-0.3-2.4c3.5-4.8-1-8.2-1.7-12.3c-1.1-6.4-0.3-13.2-0.3-20.3   c1,0.5,2.1,0.7,2.5,1.3c7.3,10.4,18.1,14.6,29.8,17.4c8,1.9,14.1,6.7,18.7,13.3c1.2,1.8,1.3,4.3,2.2,7.8c4,2.9,5,13.4,0.5,21.1   c-12-12.5-19.8-16.9-29.6-16.2c3.5,2.2,6.4,3.9,9.1,5.9c24.8,19.2,34.9,49.4,26.7,79.7c-5.9,21.8-20.4,36-40.2,45.7   c-13.7,6.8-28.2,10.8-43.4,10.9c-19.7,0-37.2-6.5-51.7-20.2c-1.2-1.1-1-3.6-1.7-6.2c-10.4-1.3-13.5-10.9-17.5-19.1   c-3.5-7.2-2.9-7.5-4.6-8.5c-0.8,5.7-0.8,5.6-6.4,9.2c-12.1,7.7-24.9,14-39.1,16.1c-6.3,0.9-13.1-1.7-19.6-2.8   c-1.8-0.3-3.7-0.8-5.9-0.3c2.9,1.9,5.8,3.7,9.1,5.9C2261.2,561.3,2162.7,562.6,2135.9,560.4z M2211.9,392.3   c0.1,0.5,0.2,0.9,0.3,1.4c1.9,1.4,3.9,2.7,5.6,4.3c3.1,2.9,5.7,6.4,9.1,8.9c4.4,3.3,6.5,7.1,6.4,12.6c-0.1,26.8,0,53.6,0,80.4   c0,2.9-0.5,5.9-1.4,8.7c-1,3.3-2.7,6.3-4.1,9.4c0.3,0.4,0.7,0.9,1,1.3c2.8-1.5,5.6-3.1,8.4-4.5c2-1,4.1-2.1,6.2-2.5   c2.4-0.5,5,0,7.4-0.5c24.5-4.5,40.2-19.2,48.6-42.2c9-24.5,10.5-50.1,9.6-75.8c-0.3-9.5,1.3-17.5,5.7-24.3c-2.9-2.5-6.4-4.3-8-7.1   c-1.7-3-1.4-7-2.3-10.5c-4.2-17.4-10.3-33.8-24.4-45.8c-13.4-11.4-29.3-14.6-46.7-14.1c0,2.2,0,3.8,0,5.5c0,26.6-0.1,53.3-0.2,79.9   c0,8-6.8,14.5-14.5,14.5C2216.5,391.8,2214.2,392.1,2211.9,392.3z"></path>
	<path d="M1327.4,524.1c-1.3-1-2.1-2-2.8-2.1c-6.6-0.2-13.2-0.1-19.8-0.2c-1.4,0-3.1-0.5-4.1-1.4c-23.4-22.3-38.4-49.5-44.8-81.1   c-2.5-12.4-4.2-25.1-4.7-37.8c-0.6-16.2,1.6-32.4,6-48.1c2.3-8.2,10.8-14.7,19-15.1c1.4-0.1,2.8,0.7,5.4,1.4   c-0.5-2-0.4-3.9-1.3-4.7c-4.4-4.2-5.1-8.7-2.9-14.3c2.9-7.6,3.8-16.6,8.5-22.8c15-19.8,34.9-33.8,57.6-43.6   c24.9-10.8,51.2-14.9,78.2-14.2c16.5,0.5,32.6,3.6,48.5,7.8c12.2,3.3,24.6,5.3,37.4,3.2c1.9-0.3,4.3,1.8,7.4,3.2   c1.8-2,4.2-4.7,6.7-7.4c0.9-1,1.7-2.1,2.8-2.7c13.1-7.2,23.7-16.4,26.7-33.5c1.6,2.2,2.8,3.2,3.3,4.6c2.6,7.4,6.4,14.7,7.1,22.2   c0.8,9.3,4.9,18.4,1.2,28.1c-2.4,6.4-5.7,11.5-11.2,15.3c-3,2.1-5.6,2.5-8.9,0c-9.5-7.2-10-10.5-1-18.4   c10.4-9.1,14.3-20.3,12.6-34.7c-0.9,1.3-1.6,2-1.8,2.7c-2.5,10.7-8,19.1-17.4,25.1c-13.1,8.4-12.5,18.4-8.2,25.6   c2.5,4.2,6.9,7.2,9.7,11.3c7.2,10.6,14.3,21.4,20.9,32.5c4.1,6.9,2.7,9.8-4.6,12.9c-3.9,1.7-7.8,3.4-11.9,5.9c2,0,4,0,6,0   c11.9,0.1,21,7.7,23.2,19.2c4.2,21.5,5.8,43.3,2.9,65c-1.5,11.3-4.8,22.3-7.3,33.4c-0.7,3.2-2.6,4.8-6,4.3c-1.4-0.2-2.9,0-4.9,0   c7.9,4.8,8,4.9,4,13c-21.8,44.5-57.6,71.6-105.5,82.6c-18,4.1-36.3,5.6-54.8,3.4c-27.2-3.3-52.8-10.9-75.7-26.5   c-2-1.4-5.1-4.4-4.7-5.4c1.2-2.9,2.2-6.8,6.5-7.2C1325.3,525.8,1326,525,1327.4,524.1z M1485.6,483.1c-2.9-8.4-6.3-16.2-4.6-25.1   c0.9-4.7,1.9-9.5,1.6-14.2c-1-15.2-1.6-30.5-4.3-45.4c-4-21.9-11.5-42.8-22.5-62.4c-8.1-14.4-17.7-27.6-31.1-37.5   c-10.3-7.7-21.8-12.2-35-13.1c-13.3-0.9-23.5,3.8-29.8,15c-4.4,7.9-7.4,16.8-10.2,25.5c-1.5,4.7-1.7,9.5-8.9,8.1   c4.7,2.9,6.6,6.2,5.7,11.3c-0.9,5.1-1.2,10.3-1.3,15.4c-0.5,21.5,2.3,42.6,9.1,63.1c5.9,17.9,14.8,34.2,25.4,49.7   c5.8,8.4,9,17.5,0.7,27.4c2.2-0.6,3.5-0.7,4.6-1.3c8-4.1,15-2.4,22,2.9c6.2,4.6,12.7,9,19.5,12.5c6.2,3.2,12.9,5.8,20.4,4.2   c13.4-2.8,19.8-12.7,24.7-24.1c2.6-5.9,4.5-12.2,6.9-18.7C1481,479,1483.3,481.1,1485.6,483.1z"></path>
	<path d="M1700.7,488.1c8.3,8.4,13.5,16.4,12.9,27.8c-0.7,13.5,2.9,26.3,10,38c0.6,1,1.6,2,1.6,3c0,1.2-0.9,2.5-1.4,3.7   c-1.1-0.5-2.3-0.8-3.1-1.5c-0.9-0.9-1.4-2.1-2.9-4.4c-2,7.4-7.3,6-11.9,6c-9.2,0.1-18.3,0-27.5,0.1c-3.1,0.1-5.2-0.5-6.9-3.5   c-1.8-3.1-4.3-5.7-7-9.3c-1.9,3-3.7,5.4-5,8.1c-1.7,3.7-4.3,4.7-8.3,4.6c-12-0.3-24-0.1-36-0.1c-7.4,0-9.7-3.1-5.9-9.5   c8.5-14.7,9.1-30.7,9.3-46.9c0.1-10.4,0-20.6,2.7-30.8c1.3-5-0.4-10.8-0.9-16.2c-0.4-4.1-1.7-8.3-1.7-12.4   c-0.1-42.3,0-84.6-0.2-127c0-3.9-0.4-7.5,3.6-9.8c3.1-1.8,6.1-3.7,9.6-5.8c-0.4-0.5-1.4-2.6-2.9-3.3c-8.8-4.3-11.7-9.7-11.3-19.4   c0.2-4-1.3-8.2-2.9-12c-2.7-6.5-6.1-12.8-9.3-19.2c3.5-3.8,8.2-3.4,12.9-3.3c7.3,0.1,14.7,0.2,22-0.1c4.4-0.2,8,0.2,7.6,5.7   c0.5,0.1,0.8,0.2,0.8,0.2c5.5-6.8,13.1-5.9,20.5-5.9c22.8,0.1,45.7-0.1,68.5,0.2c7.1,0.1,14.2,1.2,21.3,2.1   c1.8,0.2,3.5,1.6,5.1,2.5c0.5,0.3,1.1,1.1,1.5,1.1c12-2.1,21.7,4.4,31.7,9c15.6,7.2,28.6,17.9,37.9,32.5   c12.3,19.2,14.8,40.1,9.7,61.8c-2.1,8.7-6.5,16.9-9.8,25.3c-1.3,3.3-3.7,4.9-7.4,4.3c-5.2-0.7-10.4-1.3-15.6-1.7   c-1.2-0.1-2.4,0.7-4.2,1.2c8,6,9.7,9.5,7.4,16.1c-0.8,2.3-2.8,4.4-4.7,6c-2.4,1.9-5.3,3.3-8.1,4.7c-2.8,1.4-5.7,2.4-9.9,4.1   c6.2,12.1,12.1,24,18.4,35.7c2.9,5.4,6.5,10.4,9.5,15.7c1.1,2.1,1.4,4.6,2.3,8.1c6.5,2.4,9.3,10.2,14,16.2   c17.8,22.7,35.5,45.5,53.2,68.2c0.4,0.5,0.6,1.1,1.4,2.4c-2.1,0-3.7,0-5.2,0c-25,0-50,0-75,0.2c-3.7,0-6.3-1-8.7-3.7   c-3.1-3.5-6.4-6.8-9.9-9.9c-3-2.7-4.9-5.2-1.9-9c0.5-0.7,0.6-1.8,1.1-3.5c-10.4,5.7-13.5-3.4-17.8-8.5   c-16.5-19.4-30.4-40.6-41.9-63.2c-6.2-12.1-11-24.9-16.4-37.3c-0.6-1.4-1.5-2.8-2.9-5.6c0,4.9,0.9,8.6-0.3,11.5   c-1,2.6-4.2,4.4-6.7,6.9c8.7,5.3,7,14.4,7.6,22.5c0.5,6,0.1,12,0.1,18c0,6.1-2.9,8.9-9.2,8.8C1703.4,488,1702.6,488.1,1700.7,488.1   z M1710,400.3c2.7-0.4,5-0.5,7.2-1.1c21.8-5.6,37.3-19.2,47.3-39c5.9-11.7,7.9-24.5,5-37.5c-2.6-11.7-9.2-20.4-20.1-26   c-12.5-6.3-25.9-7.3-39.4-7.9c0,15.7,0.2,30.6-0.1,45.6c-0.1,3-1.9,5.9-3.4,10c3.9,3.6,3.7,9.9,3.5,16.3c-0.1,3.5,0,7,0,10.5   C1710,380.6,1710,390.1,1710,400.3z"></path>
	<path d="M581.9,350.4c7.2-4.3,9.3-3.6,13.4,1.9c7.5,10.3,15.2,20.4,22.9,30.6c-8.6-1.7-15.5-7-22.4-12.6   c10.9,19.7,24,37.7,41.8,52.1c-4.1,1.4-10.9-0.8-18.6-6.1c-5.5-3.8-10.7-8-16.3-11.8c14.6,23.9,31.9,45.4,55.3,61.6   c-0.1,0.5-0.3,0.9-0.4,1.4c-3.5-0.8-7.1-1.2-10.4-2.4c-14-5.4-25.8-14-36.6-24.2c-0.5-0.4-1-0.8-1.5-1.1c-0.5-0.3-1.1-0.6-2.1-1.1   c4.2,13.9,7.8,27.5,12.4,40.7c1.9,5.5-1.1,9.9-1.3,14.9c-0.1,3.6-2.1,7.2-3.5,10.7c-1.4,3.3-0.4,4.4,2.9,5.5   c7.9,2.8,15,6.9,19.2,14.8c3.9,7.3,8.4,14.3,12.7,21.4c1,1.7,2.3,3.3,3.2,5c3.2,6.4,1.6,9.2-5.3,9.1c-5,0-10,0.1-15,0   c-5.6,0-11.9,1.7-14.8-6.9c-4,7.6-10.2,7.1-16.4,7c-19-0.1-38-0.1-57-0.1c-1.8,0-3.6,0-5.6,0c-0.6-14-0.1-27.7-2-41   c-1.9-13.4-6.3-26.4-9.4-38.9c-11.6,0-22.5,0-33.4,0c-5.3,0-10.7,0.2-16-0.1c-2-0.1-3.9-1.2-5.8-2.2c-4.3,0.4-6,3.1-6.9,7.5   c-2.9,13.2-7.3,26.1-9.5,39.4c-1.4,8.5,0.1,17.5,0.3,26.2c0,1.6-0.1,3.3,0.1,4.9c0.3,3.7-1.7,4.3-4.9,4.2c-35-0.1-70,0-105,0   c-1.3,0-2.9,0.3-3.9-0.3c-0.8-0.5-1.5-2.6-1.1-3.2c3.4-5.3,6.9-10.6,10.8-15.6c10.3-13.3,17.8-28,23.6-43.7   c5.4-14.8,10.6-29.7,16-44.5c1.1-3,2.4-6.6,7.5-4.2c0-2.8,0.5-5.1-0.1-7.1c-2.2-6.9,1.4-12.6,3.4-18.5   c9.5-26.8,19.3-53.5,29.1-80.3c2.8-7.6,8.9-11.1,16.7-10.5c2.8,0.2,5.7-0.8,9-1.4c-0.6-0.9-0.9-1.8-1.5-2.2   c-10-6.2-9.7-16.3-8.5-25.6c1.3-9.8,5-19.3,7.8-29c0.3-1,1.1-2,1.9-2.6c4.1-3.3,4.4-5.7-0.7-7.8c-7.2-3-11.4-8.6-16-14.2   c-0.9-1.1-1.6-2.3-3.1-4.4c2.7-0.3,4.4-0.6,6.1-0.6c28.7,0,57.3-0.4,86,0.3c7.5,0.2,14.6,3.8,22.4-0.2c3.1-1.6,7.6,3.2,8.1,8.2   c2.7,27.7,13.2,52.9,24,78C585.9,337.1,585.5,343.4,581.9,350.4z M520.8,427.6c-9.7-34.5-13-69.5-21.5-103.8   C491.2,357,483.2,390.2,475,424c11.7,0,22.4-0.1,33,0.1c2.1,0,4.1,0.7,6.2,1.3C516.3,425.9,518.5,426.8,520.8,427.6z"></path>
	<path d="M886.8,481.9c-2.3,7.6-4.3,14.5-6.6,21.4c-0.9,2.6-2.6,4.8-4.6,6.7c0,2.9,0.6,5.9-0.1,8.5c-3.5,12.5-7.5,25-11.2,37.5   c-1,3.5-2.6,5.2-6.6,4.8c-4.8-0.4-9.7,0.1-14.5-0.2c-1.5-0.1-3.3-1-4.3-2.2c-0.4-0.5,0.9-2.5,1.5-3.9c-1.7-1.4-4.3-2.5-5.5-4.6   c-1.2-1.9-0.9-4.7-2-6.9c-1.2,4.9-2.2,9.8-3.9,14.5c-0.5,1.4-3.1,3-4.8,3c-26.3,0.2-52.7,0.1-79,0.2c-5.9,0-5.5-5.2-7.4-8.4   c-0.5-0.9-0.2-2.2-0.4-3.7c-1.1,0.3-2.2,0.2-2.4,0.7c-1.6,3.2-3,6.6-4.7,9.7c-0.4,0.8-1.9,1.5-2.8,1.5c-15.6,0.1-31.3,0.1-48,0.1   c1.2-4.5,1.7-8.6,3.5-12.1c4.5-8.7,6.7-17.9,6.7-27.6c0.3-55.6,0.5-111.3,1-166.9c0-3.9,2.1-7.9,3.3-11.8c0.5-1.7,1.3-3.2,2.1-5.1   c-2.2,0.1-3.7,0.2-5.4,0.3c0-14,0.5-27.6-0.2-41.2c-0.5-9.7-1.6-19.5-4-28.8c-1.7-6.9-6-13.1-9.6-20.6c1.7-0.5,3.9-1.8,6.2-1.8   c8.2-0.3,16.3-0.4,24.5,0c4.8,0.3,9.5,1.8,13.2,2.5c4.8-1,9-2.4,13.1-2.5c19.7-0.3,39.3-0.1,59-0.2c1.6,0,3.2,0,6.3,0   c-5.1,5.6-7.4,12.6-16,10.9c-1.1-0.2-2.5,1-5,2.1c7.7,1.4,9.3,4.3,8.5,10.9c-0.9,7.6-1.2,15.3-1.3,22.9c-0.2,15-0.1,30-0.1,45   c0,8.8,0,8.8-6,16.5c-1.4-1-2.8-2-4.3-3c-0.4,0.2-0.8,0.5-1.3,0.7c2.3,3.7,3.9,9,7.2,10.6c4.2,2,4.2,4.6,4.2,7.8   c0.1,10.3,0.1,20.7,0.1,31c0,31,0,62-0.1,93c0,2.4-1.2,4.7-1.4,7.1c-0.1,1.7,0,3.9,0.9,4.9c1.4,1.5,3.3,2.1,5.5-0.2   c1.3-1.4,4-2,6.1-2.2c15.1-1.7,30.4-2.5,45.4-4.8c15-2.4,29.1-8,42.4-15.5C884.6,482.4,885.3,482.3,886.8,481.9z"></path>
	<path d="M2117.6,483c-3.2,10.4-4.6,21.7-14.1,29.7c3.3,3.7,3.3,7.8,1.4,12.4c-1.8,4.4-2.8,9.2-4.4,13.7c-0.8,2.1-1.9,4.2-3.3,5.9   c-2,2.5-3.7-0.3-5.5-0.6c-3.6-0.5-7.5,0.6-11.4,1.1c1.8,2.2,3.6,4.4,4.8,5.8c2.5-0.4,5.5-1.7,6.4-0.8c2.1,2.2,5.3,4.7,3,8.5   c-0.6,0.9-1.9,2-2.9,2c-31.3,0-62.6,0-93.9-0.1c-0.1,0-0.3-0.1-0.9-0.5c0.5-1.3,1-2.7,1.6-4c-0.4,0.1-0.7,0.2-1.1,0.3   c-0.9-2.7-1.8-5.4-2.8-8.5c-1.1,2.2-1.8,4.3-3.2,5.9c-4,4.7-8.5,7.4-15.3,7.3c-22.1-0.5-44.3-0.2-66.5-0.2c-1.1,0-2.2-0.1-3.1-0.1   c3.6-6.1,7.5-11.8,10.5-17.9c4.5-9.3,4.3-19.6,4.3-29.7c0-12,0-24,0-36c0-7.6,6.1-13.8,13.9-14.1c3.1-0.1,6.3,0,10,0   c-0.9-4.7-4.1-7.2-7.4-9c-8.9-4.8-11.6-12.1-11.1-21.9c0.2-4.2-2.5-8.6-3.8-13c-0.6-2.2-1.5-4.4-1.5-6.6   c-0.1-32.6-0.1-65.2-0.1-97.8c0-10.2-0.1-20.3-0.2-30.5c-0.1-10.8-3-20.8-8.8-29.9c-0.8-1.3-0.9-3.3-0.6-4.8   c0.1-0.6,2.3-0.7,4.2-1.3c0.1-0.4,0.3-1.6,0.5-2.8c0.7-0.1,1.2-0.3,1.7-0.3c10,0,20,0.1,30,0c5.2-0.1,10.5-0.5,13.8,6   c5.8-8.2,14-5.8,21.4-5.9c9.8-0.2,19.7-0.4,29.5,0c4.6,0.2,9.1,2,13.6,3c-2.8,7.1-6.5,12.8-7.3,19c-1.6,11.8-1.8,23.8-2,35.8   c-0.1,6.2-1.2,11.6-5.2,16.6c-2.8,3.5-4.6,7.9-6.8,12c0.4,0.3,0.8,0.6,1.1,0.8c1.3-1.2,2.4-2.5,3.9-3.5s3.3-1.7,5-2.5   c0.6,1.7,1.7,3.4,1.7,5.1c0.1,16.7,0.1,33.3,0.1,50c0,35.2,0.2,70.3-0.1,105.5c0,5.1-1.8,10.3-3.4,15.2c-1.4,4.2-1.8,4,1.5,7.9   c2.6-5.4,7-6.9,12.7-7c24.5-0.4,48.7-2.7,71.5-12.3c0.9-0.4,2.2-1,2.9-0.6c6.4,3.2,9.2-1.2,12.2-5.6c0.7-1,1.9-1.5,2.9-2.3   C2116.9,482.4,2117.3,482.7,2117.6,483z"></path>
	<path d="M1309.2,646.2c-4.8-4.6-9.2-9-13.7-13.3c4.4-4.3,8.8-8.6,13.5-13.2c-0.2,0,0.3-0.1,0.4,0.1c4,5.7,9.6,6.3,16.1,6.3   c111.2,0.4,222.3,1.1,333.5,1.7c125.5,0.7,251,1.4,376.5,2.1c121.7,0.7,243.3,1.5,365,2.2c29,0.2,58,0,87,0c0,0.7,0,1.5,0,2.2   c-62.5,0-124.9-0.2-187.4,0c-83.7,0.3-167.3,0.8-251,1.3c-120.2,0.7-240.3,1.4-360.5,2c-121.8,0.7-243.6,1.4-365.4,2   C1316.7,639.8,1316.7,639.9,1309.2,646.2z"></path>
	<path d="M1194.3,620.3c4,4,8.6,8.5,13.2,13c-4.4,4.4-8.9,8.8-13.3,13.2c-0.2-0.1-0.4-0.1-0.5-0.2c-5.1-7.2-12.6-6.5-20.1-6.6   c-68-0.2-136-0.5-204-0.8c-46.7-0.2-93.3-0.6-140-0.8c-121.8-0.7-243.6-1.5-365.4-2.2c-81-0.5-162-1.1-242.9-1.3   c-66.5-0.2-133,0-199.4,0c0-0.5,0-0.9,0-1.4c58.6-0.5,117.2-1.2,175.8-1.5c88.6-0.6,177.3-1,265.9-1.5c124.3-0.7,248.6-1.3,372.9-2   c115.5-0.7,230.9-1.3,346.4-2.3C1186.8,625.7,1190.6,622.2,1194.3,620.3z"></path>
	<path d="M1061.2,218.9c-0.8-10.7-1.7-21.4-2.2-32.2c-0.1-1.6,1.5-3.4,2.5-5.1c0.9-1.4,2-2.7,2.4-4.8c-1.3,0.8-2.6,1.6-4.3,2.6   c1.6-12.2,4.6-23.4,11.9-33.1c-10,6.7-17.3,15.4-21.2,26.8c-3.9,11.3-3.1,22.6-0.5,34.9c-12.5-13.1-15.3-33.6-7.5-49.9   c6.4-13.4,15.9-24.2,28.3-32c7-4.4,14.7-7.5,22.1-11.2c0.4,0.4,0.8,0.8,1.2,1.2c-0.3,1.5-1,3.1-1,4.6c0,4.8,0.3,9.6,0.5,14.4   c0.2,4,2.9,7.4,0.8,12.3c-1.8,4.1,1.8,8.9,4.7,12.6c4.6,5.9,3,12.6,2.7,19.2c0,0.5-0.6,1.5-1,1.5c-5.9,0.8-5.5,5.4-6.4,9.6   c-0.6,2.8-1.9,6-4,7.7c-5.4,4.6-11.3,8.6-17.1,12.7C1069.6,213.4,1065.9,215.7,1061.2,218.9z"></path>
</g>
</svg>
