<?xml version="1.0" encoding="UTF-8"?> <svg xmlns="http://www.w3.org/2000/svg" width="30" height="30" viewBox="0 0 30 30" fill="none"><path d="M18.1899 24.7431C17.4603 24.7737 16.6261 24.3423 16.1453 23.6749C15.9745 23.438 15.6161 23.4548 15.4621 23.7026C15.1857 24.1478 14.9389 24.5259 14.8066 24.751C14.4739 25.3197 14.5242 25.4223 14.7918 25.8636C15.2923 26.689 16.8374 27.9675 19.0113 27.999C22.3807 28.0474 25.2269 26.2506 26.303 21.9058C29.0811 22.0322 29.5767 20.9018 29.5866 19.8415C29.5965 18.795 29.1542 18.2796 27.8866 17.9232C27.4739 17.8067 26.9902 17.7061 26.4689 17.4948C26.3198 16.2281 25.9496 15.0257 25.376 13.8933C28.1433 2.78289 16.4839 -0.631985 12.0048 4.22426C11.3818 3.42756 9.81016 2.00395 7.14065 2C4.12857 1.99606 1 4.47798 1 8.23346C1 9.79626 1.93492 12.1331 2.56083 14.1332C3.86103 18.2875 4.6992 19.4683 6.52362 19.801C7.98376 20.0675 9.1645 19.3972 10.0471 18.2796C11.3233 18.4028 10.4726 19.5371 16.4099 19.2234C17.6765 19.1168 18.7694 19.564 19.5937 20.498C20.8071 21.8732 20.4566 24.6474 18.1899 24.7421V24.7431ZM17.8483 13.0423C17.2174 12.9801 16.707 12.4697 16.6448 11.8389C16.5599 10.9859 17.2708 10.2761 18.1237 10.36C18.7546 10.4222 19.265 10.9326 19.3272 11.5634C19.4111 12.4154 18.7013 13.1262 17.8483 13.0423ZM20.578 18.178C19.9403 17.5392 19.8524 16.7149 20.3519 16.1788C20.9186 15.5706 21.7242 15.85 22.1428 16.3061C23.4331 17.712 24.9209 18.6193 27.854 19.337C28.4651 19.487 28.4157 20.3716 27.7908 20.4476C26.4798 20.6076 24.3355 20.3065 22.8882 19.6934C22.0115 19.3222 21.1763 18.7762 20.578 18.177V18.178Z" fill="#1677FF"></path><path d="M17.0439 19.2156C17.0439 19.2156 17.037 19.2156 17.0321 19.2156C18.0648 19.2738 18.9029 19.7161 19.594 20.498C20.8073 21.8732 20.4568 24.6474 18.1901 24.7421C17.4606 24.7727 16.6263 24.3413 16.1456 23.6739C17.7202 26.6505 21.8281 26.0818 22.2694 23.3432C22.6288 21.114 20.0304 18.5699 17.0439 19.2136V19.2156ZM10 18C7.24751 15.8875 7.91886 10.4824 10.7779 6.4742C10.3317 5.85322 9.00779 4.787 7.32553 4.74751C4.61357 4.68433 2.68055 6.99842 3.66286 10.206C3.9768 6.91846 7.20805 6.33105 8.7363 8.17324C6.76477 12.1479 7.27817 16.1766 10 18C15 19.2194 12.2436 19.21 10 18Z" fill="#1E56E2"></path><path d="M10 18H12L13 19H12L11 18.5L10 18Z" fill="#1677FF"></path></svg> 